<svg width="28" height="24" viewBox="0 0 28 24" fill="none" xmlns="http://www.w3.org/2000/svg">
<path d="M4.54906 23.9665C2.43565 23.8392 0.668651 22.8068 0.215659 20.2307C0.0374598 19.2138 0.124061 18.166 0.29893 17.124L0.663655 14.9454C0.960099 13.1798 0.943445 11.4604 0.615358 9.69866L0.185682 7.39465C0.0707681 6.77716 0.0441215 6.10756 0.00914779 5.44183C-0.090777 3.54112 0.628681 1.62111 2.13088 0.768203C3.92453 -0.248726 6.35604 0.307015 8.23795 0.606112L9.60193 0.822234C10.9343 1.0345 13.5506 1.25062 14.8263 1.06151L21.3048 0.102472C21.3048 0.102472 21.3114 0.102472 21.3148 0.102472L22.394 0.0156372C23.2217 -0.0499711 24.081 0.0986124 24.8854 0.316664C26.5042 0.756626 27.6117 2.2058 27.9065 4.09107C28.0863 5.24308 27.9831 6.4221 27.7966 7.5934L27.257 10.978C27.1287 11.7865 27.1154 13.6545 27.2387 14.436L27.7899 17.9151C28.0564 19.5939 27.8166 21.3036 26.749 22.529C25.7748 23.6482 23.7546 23.9955 22.5455 23.7852L18.2704 23.0442C16.8648 22.801 15.4392 22.7605 14.0236 22.9168C12.6946 23.0635 11.4106 23.2449 10.0749 23.5169C8.21797 23.8971 6.43598 24.0804 4.54573 23.9665H4.54906ZM11.5521 11.7422C12.0951 12.2786 12.4664 12.8498 13.1193 13.147C13.6955 13.4094 14.5599 13.4653 15.1094 13.0524C16.1104 12.3018 16.8964 11.4122 17.8341 10.4628C18.87 9.41307 20.4454 7.65901 21.6828 6.41245C21.8161 6.2793 23.5681 4.33228 25.2468 2.27913C25.3251 2.18457 25.3034 2.02441 25.2069 1.95687C23.643 0.843461 20.0291 1.66549 18.3137 1.94336L16.1786 2.28877C14.4583 2.56664 12.7729 2.64769 11.0425 2.38912L5.81811 1.61146C4.79888 1.45902 3.82794 1.45709 2.83535 1.97231C2.71544 2.03406 2.68547 2.21545 2.7804 2.32158L4.45414 4.21843C6.75407 6.82347 9.07066 9.2915 11.5555 11.7422H11.5521ZM2.65882 22.0234C3.81628 22.7644 6.08957 22.7875 7.33697 22.5849L13.4241 21.5969C15.8472 21.2033 18.9749 21.7416 21.4097 22.2144C22.807 22.4846 25.0953 22.7702 26.0945 21.3152C26.6874 20.4507 26.844 19.3315 26.6707 18.2451L26.1012 14.6579C25.9163 13.4982 25.9063 12.3326 26.0779 11.1691L26.744 6.66524C26.9172 5.492 26.9006 4.33421 26.4193 3.2729C26.361 3.14554 26.2144 3.11853 26.1262 3.21887L25.4067 4.03704L23.8912 5.73321L22.0426 7.74777L16.3902 13.6622C14.9596 15.1596 12.9311 15.0264 11.6221 13.666L9.96665 11.9486C8.11971 10.0306 6.29275 8.17809 4.51409 6.17317L3.37828 4.89188C2.87532 4.32456 2.38569 3.77461 1.82445 3.22466C1.73618 3.13782 1.59962 3.16677 1.54299 3.28255C0.793557 4.82241 1.3548 7.38114 1.66956 8.90364C2.17419 11.3543 2.14754 13.7818 1.65125 16.2286C1.23323 18.2934 0.868501 20.8752 2.66049 22.0234H2.65882Z" fill="#681F02"/>
</svg>
