<svg width="17" height="17" viewBox="0 0 17 17" fill="none" xmlns="http://www.w3.org/2000/svg">
<path d="M15.0292 4.11574C14.4288 3.59537 13.8852 3.0847 13.3456 2.50219C12.5783 1.67309 11.6345 1.0964 10.5218 0.810975L8.08272 0.189632C6.95832 -0.097739 5.77506 -0.0647301 4.68207 0.331376C3.81081 0.647872 3.14755 1.24203 2.57064 1.94493C1.99961 2.64199 1.615 3.40896 1.11069 4.16623C0.21589 5.51376 -0.235437 7.071 0.123662 8.68844C0.25906 9.30201 0.555367 9.87287 0.881107 10.4146C1.34617 11.1893 1.75433 11.933 2.1566 12.7388C2.52551 13.4767 3.02393 14.1252 3.73035 14.5776C4.34455 14.9698 4.9666 15.4145 5.62004 15.6844C6.74247 16.1465 7.97871 16.1814 9.11292 15.7387C9.25813 15.6824 9.45043 15.6455 9.56621 15.6358C10.7043 15.0883 11.66 15.2591 12.961 14.4786C13.636 14.0728 14.262 13.6708 14.9095 13.2184C15.8985 12.5252 16.5108 11.4651 16.5873 10.2457C16.652 9.23017 16.6442 8.22049 16.5932 7.20886C16.5284 5.96424 15.9495 4.91572 15.0253 4.1138L15.0292 4.11574Z" fill="#E74E1C"/>
<path d="M15.1842 9.8787C15.1273 10.869 14.6505 11.7524 13.8342 12.2922L12.5822 13.1213C11.3028 13.9679 10.4198 13.8825 8.81661 14.4592C8.00422 14.7524 7.17025 14.7601 6.35197 14.4436C5.55332 14.1349 4.80961 13.7058 4.14244 13.1602C3.75586 12.8417 3.47526 12.4107 3.25155 11.9699C2.89638 11.267 2.53924 10.6165 2.13305 9.93695C1.86225 9.48453 1.61697 9.00493 1.511 8.48844C1.24413 7.17974 1.61304 5.93705 2.33124 4.85164C3.11616 3.66721 3.78726 2.15074 5.35513 1.61872C6.25582 1.31387 7.2095 1.30611 8.12785 1.54299L10.151 2.06337C11.0831 2.3022 11.8621 2.78956 12.4998 3.48663C12.91 3.93516 13.3279 4.33904 13.7969 4.72932C14.623 5.41668 15.1509 6.32733 15.1901 7.42828C15.2196 8.25155 15.2274 9.06124 15.1803 9.8787H15.1842Z" fill="#E74E1C"/>
</svg>
